<svg width="32" height="32" viewBox="0 0 32 32" fill="none" xmlns="http://www.w3.org/2000/svg">
<g clip-path="url(#clip0_60_1255)">
<mask id="mask0_60_1255" style="mask-type:luminance" maskUnits="userSpaceOnUse" x="0" y="0" width="32" height="32">
<path d="M32 0H0V32H32V0Z" fill="white"/>
</mask>
<g mask="url(#mask0_60_1255)">
<path d="M16 32C24.8367 32 32 24.8367 32 16C32 7.16335 24.8367 0 16 0C7.16335 0 0 7.16335 0 16C0 24.8367 7.16335 32 16 32Z" fill="#7105E9" fill-opacity="0.05"/>
<path d="M16 0.5C24.5606 0.5 31.5 7.43949 31.5 16C31.5 24.5606 24.5606 31.5 16 31.5C7.43949 31.5 0.5 24.5606 0.5 16C0.5 7.43949 7.43949 0.5 16 0.5Z" stroke="#7105E9" stroke-opacity="0.1"/>
<path d="M22.9827 13.6717H18.3281V13.0898H22.4009C22.5552 13.0898 22.7031 13.1511 22.8123 13.2603C22.9214 13.3694 22.9827 13.5174 22.9827 13.6717Z" fill="#7105E9"/>
<path d="M24.1263 22H7.91691C7.41052 22 7 21.5879 7 21.0794V11.9206C7 11.4121 7.41052 11 7.91691 11H24.1263C24.6327 11 25.0432 11.4121 25.0432 11.9206V21.0794C25.0432 21.5879 24.6327 22 24.1263 22Z" fill="#7105E9"/>
<path d="M25.0432 14.8853V12.7008H7V14.8853H25.0432Z" fill="#5506AD"/>
<path d="M8.18872 16.8516H13.7602V16.5232H8.18872V16.8516Z" fill="white"/>
<path d="M8.18872 17.9512H13.7602V17.6228H8.18872V17.9512Z" fill="white"/>
<path d="M8.18872 19.0513H17.257V18.7229H8.18872V19.0513Z" fill="white"/>
<path d="M8.18872 20.1514H17.257V19.823H8.18872V20.1514Z" fill="white"/>
<path d="M22.6456 19.9873H20.6339C20.3783 19.9873 20.1711 19.7793 20.1711 19.5226V17.1519C20.1711 16.8953 20.3783 16.6873 20.6339 16.6873H22.6456C22.9012 16.6873 23.1084 16.8953 23.1084 17.1519V19.5226C23.1084 19.7793 22.9012 19.9873 22.6456 19.9873Z" fill="#FBC946"/>
<path d="M23.5206 11H7.91691C7.41052 11 7 11.4121 7 11.9206V12.7007H20.0365C21.1955 12.129 22.3565 11.5614 23.5206 11Z" fill="#7105E9"/>
<path d="M11.7457 16.8515H8.1889V16.5232H12.3961C12.1793 16.6326 11.9625 16.7421 11.7457 16.8515ZM9.56608 17.9515H8.1889V17.6231H10.2167C9.9998 17.7326 9.78295 17.8421 9.56608 17.9515ZM7 14.8852V19.2432C7.65698 18.9133 8.31379 18.5831 8.9702 18.2522C11.2455 17.1051 13.5189 15.9543 15.7964 14.8117C15.7474 14.8363 15.6984 14.8606 15.6494 14.8852H7Z" fill="#7105E9"/>
<path d="M20.0364 12.7007H20.0363C19.3058 13.061 18.5759 13.423 17.8469 13.7861C18.576 13.423 19.3059 13.0611 20.0364 12.7007Z" fill="#9C42FF"/>
<path d="M17.8471 13.7862C18.5761 13.423 19.3059 13.0611 20.0365 12.7008H7V14.8853H15.6494C15.6984 14.8607 15.7474 14.8363 15.7964 14.8117C16.465 14.4763 17.134 14.1416 17.8035 13.808C17.818 13.8007 17.8326 13.7935 17.8471 13.7862Z" fill="#9C42FF"/>
<path d="M8.18872 16.8516H11.7455C11.9623 16.7422 12.1791 16.6327 12.3959 16.5234H8.18872V16.8516Z" fill="white"/>
<path d="M8.18872 17.9512H9.56591C9.78278 17.8418 9.99963 17.7323 10.2165 17.6228H8.18872V17.9512Z" fill="white"/>
</g>
</g>
<defs>
<clipPath id="clip0_60_1255">
<rect width="32" height="32" fill="white"/>
</clipPath>
</defs>
</svg>
