<svg width="49" height="49" viewBox="0 0 49 49" fill="none" xmlns="http://www.w3.org/2000/svg">
<rect y="0.490234" width="49" height="48.02" rx="24.01" fill="#7105E9" fill-opacity="0.05"/>
<rect x="0.75" y="1.24023" width="47.5" height="46.52" rx="23.26" stroke="#7105E9" stroke-opacity="0.2" stroke-width="1.5"/>
<path d="M14.8889 20.1431V31.7144M21.3889 20.1431V31.7144M28.6111 20.1431V31.7144M35.1111 20.1431V31.7144M12 34.0286L12 35.1858C12 35.9958 12 36.4008 12.1574 36.7102C12.2959 36.9824 12.5169 37.2037 12.7887 37.3424C13.0977 37.5 13.5021 37.5 14.3111 37.5H35.6889C36.4979 37.5 36.9023 37.5 37.2113 37.3424C37.4831 37.2037 37.7041 36.9824 37.8426 36.7102C38 36.4008 38 35.9958 38 35.1858V34.0286C38 33.2186 38 32.8135 37.8426 32.5041C37.7041 32.232 37.4831 32.0107 37.2113 31.872C36.9023 31.7144 36.4979 31.7144 35.6889 31.7144H14.3111C13.5021 31.7144 13.0977 31.7144 12.7887 31.872C12.5169 32.0107 12.2959 32.232 12.1574 32.5041C12 32.8135 12 33.2186 12 34.0286ZM24.4986 11.5763L13.8098 13.9548C13.164 14.0985 12.8411 14.1704 12.6001 14.3442C12.3875 14.4976 12.2206 14.706 12.1172 14.947C12 15.2203 12 15.5515 12 16.2139L12 17.8289C12 18.639 12 19.044 12.1574 19.3534C12.2959 19.6256 12.5169 19.8468 12.7887 19.9855C13.0977 20.1431 13.5021 20.1431 14.3111 20.1431H35.6889C36.4979 20.1431 36.9023 20.1431 37.2113 19.9855C37.4831 19.8468 37.7041 19.6256 37.8426 19.3534C38 19.044 38 18.639 38 17.8289V16.214C38 15.5515 38 15.2203 37.8828 14.947C37.7794 14.706 37.6125 14.4976 37.3999 14.3442C37.1589 14.1704 36.836 14.0985 36.1902 13.9548L25.5014 11.5763C25.3143 11.5346 25.2207 11.5138 25.1262 11.5055C25.0422 11.4982 24.9578 11.4982 24.8738 11.5055C24.7793 11.5138 24.6857 11.5346 24.4986 11.5763Z" stroke="#7105E9" stroke-width="2" stroke-linecap="round" stroke-linejoin="round"/>
</svg>
