<svg width="90" height="44" viewBox="0 0 90 44" fill="none" xmlns="http://www.w3.org/2000/svg">
<rect y="0.5" width="90" height="43" rx="21.5" fill="#7105E9" fill-opacity="0.05"/>
<rect x="0.5" y="1" width="89" height="42" rx="21" stroke="#7105E9" stroke-opacity="0.3"/>
<path d="M22.5376 19.6172C22.4912 19.183 22.2957 18.8449 21.951 18.603C21.6096 18.361 21.1655 18.2401 20.6186 18.2401C20.2341 18.2401 19.9044 18.2981 19.6293 18.4141C19.3542 18.5301 19.1437 18.6875 18.9979 18.8864C18.852 19.0852 18.7775 19.3123 18.7741 19.5675C18.7741 19.7796 18.8222 19.9635 18.9183 20.1193C19.0178 20.2751 19.152 20.4077 19.321 20.517C19.4901 20.6231 19.6773 20.7126 19.8828 20.7855C20.0883 20.8584 20.2955 20.9197 20.5043 20.9695L21.4588 21.2081C21.8433 21.2976 22.2128 21.4186 22.5675 21.571C22.9254 21.7235 23.2453 21.9157 23.527 22.1477C23.812 22.3797 24.0374 22.6598 24.2031 22.9879C24.3688 23.3161 24.4517 23.7005 24.4517 24.1413C24.4517 24.7379 24.2992 25.2633 23.9943 25.7173C23.6894 26.1681 23.2486 26.5211 22.6719 26.7763C22.0985 27.0282 21.4041 27.1541 20.5888 27.1541C19.7966 27.1541 19.1089 27.0315 18.5256 26.7862C17.9455 26.541 17.4915 26.183 17.1634 25.7124C16.8385 25.2417 16.6629 24.6683 16.6364 23.9922H18.451C18.4775 24.3468 18.5869 24.6418 18.7791 24.8771C18.9714 25.1125 19.2216 25.2881 19.5298 25.4041C19.8414 25.5201 20.1894 25.5781 20.5739 25.5781C20.9749 25.5781 21.3262 25.5185 21.6278 25.3991C21.9328 25.2765 22.1714 25.1075 22.3438 24.892C22.5161 24.6733 22.6039 24.4181 22.6072 24.1264C22.6039 23.8613 22.526 23.6425 22.3736 23.4702C22.2211 23.2945 22.0073 23.1487 21.7322 23.0327C21.4605 22.9134 21.1423 22.8073 20.7777 22.7145L19.6193 22.4162C18.7808 22.2008 18.1179 21.8743 17.6307 21.4368C17.1468 20.996 16.9048 20.411 16.9048 19.6818C16.9048 19.0819 17.0672 18.5566 17.392 18.1058C17.7202 17.6551 18.166 17.3054 18.7294 17.0568C19.2929 16.8049 19.9309 16.679 20.6435 16.679C21.366 16.679 21.9991 16.8049 22.5426 17.0568C23.0895 17.3054 23.5187 17.6518 23.8303 18.0959C24.1418 18.5367 24.3026 19.0438 24.3125 19.6172H22.5376ZM29.8297 19.3636V20.7557H25.4398V19.3636H29.8297ZM26.5236 17.5341H28.3233V24.7031C28.3233 24.9451 28.3598 25.1307 28.4327 25.2599C28.5089 25.3859 28.6084 25.4721 28.731 25.5185C28.8536 25.5649 28.9895 25.5881 29.1387 25.5881C29.2514 25.5881 29.3541 25.5798 29.4469 25.5632C29.543 25.5466 29.6159 25.5317 29.6657 25.5185L29.9689 26.9254C29.8728 26.9586 29.7353 26.995 29.5563 27.0348C29.3806 27.0746 29.1652 27.0978 28.91 27.1044C28.4592 27.1177 28.0532 27.0497 27.6919 26.9006C27.3307 26.7481 27.044 26.5128 26.8319 26.1946C26.623 25.8764 26.5203 25.4787 26.5236 25.0014V17.5341ZM34.6335 27.1491C33.8679 27.1491 33.2067 26.9901 32.6499 26.6719C32.0964 26.3504 31.6705 25.8963 31.3722 25.3097C31.0739 24.7197 30.9247 24.0253 30.9247 23.2266C30.9247 22.4411 31.0739 21.7517 31.3722 21.1584C31.6738 20.5618 32.0947 20.0978 32.6349 19.7663C33.1752 19.4316 33.8099 19.2642 34.5391 19.2642C35.0097 19.2642 35.4538 19.3404 35.8714 19.4929C36.2924 19.642 36.6636 19.8741 36.9851 20.1889C37.3099 20.5038 37.5651 20.9048 37.7507 21.392C37.9363 21.8759 38.0291 22.4527 38.0291 23.1222V23.674H31.7699V22.4609H36.304C36.3007 22.1162 36.2261 21.8097 36.0803 21.5412C35.9344 21.2694 35.7306 21.0556 35.4688 20.8999C35.2102 20.7441 34.9086 20.6662 34.5639 20.6662C34.196 20.6662 33.8729 20.7557 33.5945 20.9347C33.3161 21.1103 33.099 21.3423 32.9432 21.6307C32.7907 21.9157 32.7128 22.2289 32.7095 22.5703V23.6293C32.7095 24.0734 32.7907 24.4545 32.9531 24.7727C33.1155 25.0876 33.3426 25.3295 33.6342 25.4986C33.9259 25.6643 34.2673 25.7472 34.6584 25.7472C34.9202 25.7472 35.1572 25.7107 35.3693 25.6378C35.5814 25.5616 35.7654 25.4505 35.9212 25.3047C36.0769 25.1589 36.1946 24.9782 36.2741 24.7628L37.9545 24.9517C37.8485 25.3958 37.6463 25.7836 37.348 26.1151C37.053 26.4432 36.6752 26.6984 36.2145 26.8807C35.7538 27.0597 35.2268 27.1491 34.6335 27.1491ZM39.5517 29.8636V19.3636H41.3216V20.6264H41.426C41.5188 20.4408 41.6497 20.2436 41.8187 20.0348C41.9877 19.8227 42.2164 19.642 42.5048 19.4929C42.7931 19.3404 43.161 19.2642 43.6085 19.2642C44.1984 19.2642 44.7304 19.415 45.2044 19.7166C45.6816 20.0149 46.0595 20.4574 46.3379 21.044C46.6196 21.6274 46.7605 22.3433 46.7605 23.1918C46.7605 24.0303 46.6229 24.7429 46.3478 25.3295C46.0727 25.9162 45.6982 26.3636 45.2243 26.6719C44.7503 26.9801 44.2134 27.1342 43.6135 27.1342C43.176 27.1342 42.813 27.0613 42.5247 26.9155C42.2363 26.7696 42.0043 26.594 41.8287 26.3885C41.6563 26.1797 41.5221 25.9825 41.426 25.7969H41.3514V29.8636H39.5517ZM41.3166 23.1818C41.3166 23.6757 41.3862 24.1082 41.5254 24.4794C41.6679 24.8506 41.8717 25.1406 42.1369 25.3494C42.4054 25.5549 42.7302 25.6577 43.1113 25.6577C43.5091 25.6577 43.8422 25.5516 44.1106 25.3395C44.3791 25.1241 44.5813 24.8307 44.7172 24.4595C44.8564 24.085 44.926 23.6591 44.926 23.1818C44.926 22.7079 44.858 22.2869 44.7221 21.919C44.5862 21.5511 44.3841 21.2628 44.1156 21.054C43.8471 20.8452 43.5124 20.7408 43.1113 20.7408C42.7269 20.7408 42.4004 20.8419 42.1319 21.044C41.8635 21.2462 41.6596 21.5296 41.5204 21.8942C41.3845 22.2588 41.3166 22.688 41.3166 23.1818ZM51.7544 27V25.6676L55.2892 22.2024C55.6273 21.861 55.909 21.5578 56.1344 21.2926C56.3598 21.0275 56.5288 20.7706 56.6415 20.522C56.7542 20.2734 56.8105 20.0083 56.8105 19.7266C56.8105 19.4051 56.7376 19.13 56.5918 18.9013C56.446 18.6693 56.2454 18.4903 55.9902 18.3643C55.735 18.2384 55.445 18.1754 55.1202 18.1754C54.7855 18.1754 54.4921 18.245 54.2402 18.3842C53.9883 18.5201 53.7928 18.714 53.6536 18.9659C53.5177 19.2178 53.4498 19.5178 53.4498 19.8658H51.6948C51.6948 19.2195 51.8423 18.6577 52.1373 18.1804C52.4322 17.7031 52.8382 17.3336 53.3553 17.0717C53.8757 16.8099 54.4722 16.679 55.1451 16.679C55.8278 16.679 56.4277 16.8066 56.9448 17.0618C57.4618 17.317 57.8629 17.6667 58.1479 18.1108C58.4363 18.5549 58.5804 19.062 58.5804 19.6321C58.5804 20.0133 58.5075 20.3878 58.3617 20.7557C58.2159 21.1236 57.959 21.5312 57.5911 21.9787C57.2265 22.4261 56.7144 22.968 56.0549 23.6044L54.2999 25.3892V25.4588H58.7346V27H51.7544ZM64.6259 16.3409L61.3446 28.5312H59.7686L63.0499 16.3409H64.6259ZM65.7544 27V25.6676L69.2892 22.2024C69.6273 21.861 69.909 21.5578 70.1344 21.2926C70.3598 21.0275 70.5288 20.7706 70.6415 20.522C70.7542 20.2734 70.8105 20.0083 70.8105 19.7266C70.8105 19.4051 70.7376 19.13 70.5918 18.9013C70.446 18.6693 70.2454 18.4903 69.9902 18.3643C69.735 18.2384 69.445 18.1754 69.1202 18.1754C68.7855 18.1754 68.4921 18.245 68.2402 18.3842C67.9883 18.5201 67.7928 18.714 67.6536 18.9659C67.5177 19.2178 67.4498 19.5178 67.4498 19.8658H65.6948C65.6948 19.2195 65.8423 18.6577 66.1373 18.1804C66.4322 17.7031 66.8382 17.3336 67.3553 17.0717C67.8757 16.8099 68.4722 16.679 69.1451 16.679C69.8278 16.679 70.4277 16.8066 70.9448 17.0618C71.4618 17.317 71.8629 17.6667 72.1479 18.1108C72.4363 18.5549 72.5804 19.062 72.5804 19.6321C72.5804 20.0133 72.5075 20.3878 72.3617 20.7557C72.2159 21.1236 71.959 21.5312 71.5911 21.9787C71.2265 22.4261 70.7144 22.968 70.0549 23.6044L68.2999 25.3892V25.4588H72.7346V27H65.7544Z" fill="#7105E9"/>
</svg>
