<svg width="24" height="25" viewBox="0 0 24 25" fill="none" xmlns="http://www.w3.org/2000/svg">
<path d="M22 10.0464H2M2 8.24639L2 15.8464C2 16.9665 2 17.5265 2.21799 17.9544C2.40973 18.3307 2.71569 18.6367 3.09202 18.8284C3.51984 19.0464 4.07989 19.0464 5.2 19.0464L18.8 19.0464C19.9201 19.0464 20.4802 19.0464 20.908 18.8284C21.2843 18.6367 21.5903 18.3307 21.782 17.9544C22 17.5265 22 16.9665 22 15.8464V8.24639C22 7.12628 22 6.56623 21.782 6.13841C21.5903 5.76208 21.2843 5.45612 20.908 5.26438C20.4802 5.04639 19.9201 5.04639 18.8 5.04639L5.2 5.04639C4.0799 5.04639 3.51984 5.04639 3.09202 5.26437C2.7157 5.45612 2.40973 5.76208 2.21799 6.13841C2 6.56623 2 7.12628 2 8.24639Z" stroke="white" stroke-width="2" stroke-linecap="round" stroke-linejoin="round"/>
</svg>
