<svg width="593" height="376" viewBox="0 0 593 376" fill="none" xmlns="http://www.w3.org/2000/svg">
<path d="M490.985 375.005L492.59 374.974C491.969 357.13 490.066 339.353 486.893 321.783C479.954 284.161 468.414 259.458 452.595 248.351L451.673 249.664C488.626 275.609 490.966 374.014 490.985 375.005Z" fill="#222B45"/>
<path d="M470.924 374.621L472.529 374.59C472.494 372.813 471.491 330.924 455.001 319.349L454.08 320.662C469.905 331.772 470.917 374.194 470.924 374.621Z" fill="#222B45"/>
<path d="M442.543 249.809C446.974 249.809 450.567 246.217 450.567 241.785C450.567 237.353 446.974 233.761 442.543 233.761C438.111 233.761 434.518 237.353 434.518 241.785C434.518 246.217 438.111 249.809 442.543 249.809Z" fill="#7105E9"/>
<path d="M446.516 318.818C450.948 318.818 454.54 315.225 454.54 310.794C454.54 306.362 450.948 302.77 446.516 302.77C442.084 302.77 438.492 306.362 438.492 310.794C438.492 315.225 442.084 318.818 446.516 318.818Z" fill="#7105E9"/>
<path d="M474.664 254.622C473.156 264.255 477.087 272.87 477.087 272.87C477.087 272.87 483.462 265.868 484.97 256.236C486.479 246.603 482.548 237.984 482.548 237.984C482.548 237.984 476.17 244.987 474.664 254.622Z" fill="#222B45"/>
<path d="M448.434 278.013C457.657 281.176 466.825 278.807 466.825 278.807C466.825 278.807 461.041 271.309 451.817 268.145C442.593 264.981 433.426 267.351 433.426 267.351C433.426 267.351 439.212 274.85 448.434 278.013Z" fill="#222B45"/>
<path d="M448.138 339.128C452.312 340.439 456.757 340.631 461.029 339.685C458.317 336.232 454.664 333.637 450.511 332.212C446.358 330.788 441.881 330.594 437.62 331.656C440.412 335.024 444.039 337.601 448.138 339.128Z" fill="#222B45"/>
<path d="M260.869 124.536L209.134 97.6345C209.134 97.6345 191.761 78.5017 180.85 69.8595C169.939 61.2173 166.581 67.5662 166.581 67.5662L161.994 75.2108L173.079 90.6262L203.019 115.98L256.518 136.934C257.354 138.304 258.563 139.409 260.002 140.119C261.442 140.83 263.053 141.117 264.65 140.949C266.246 140.78 267.762 140.161 269.021 139.165C270.279 138.169 271.23 136.837 271.762 135.322C272.293 133.807 272.384 132.173 272.024 130.609C271.664 129.044 270.867 127.614 269.727 126.485C268.586 125.355 267.148 124.572 265.581 124.227C264.013 123.882 262.38 123.989 260.87 124.536L260.869 124.536Z" fill="#9F616A"/>
<path d="M126.301 101.269L123.239 82.5309L114.59 80.3659C114.59 80.3659 107.726 78.2519 106.121 92.0776C104.517 105.903 105.761 131.717 105.761 131.717L88.2013 187.324C86.7407 188.003 85.5032 189.083 84.6328 190.439C83.7625 191.794 83.2951 193.369 83.2851 194.98C83.2751 196.591 83.7229 198.171 84.5764 199.537C85.4298 200.904 86.6539 201.999 88.1059 202.697C89.5579 203.394 91.1782 203.665 92.7781 203.477C94.378 203.289 95.8916 202.651 97.1427 201.636C98.3939 200.621 99.331 199.272 99.845 197.746C100.359 196.219 100.429 194.578 100.046 193.013L123.058 140.367L126.301 101.269Z" fill="#9F616A"/>
<path d="M197.837 364.241H209.154L214.538 320.59H197.833L197.837 364.241Z" fill="#9F616A"/>
<path d="M194.95 360.543H217.239C221.006 360.543 224.618 362.04 227.282 364.703C229.945 367.366 231.442 370.979 231.442 374.746V375.208H194.951L194.95 360.543Z" fill="#222B45"/>
<path d="M74.3995 364.241H85.7173L91.1011 320.59H74.3954L74.3995 364.241Z" fill="#9F616A"/>
<path d="M71.5159 360.543H93.8045C97.5713 360.543 101.184 362.04 103.847 364.703C106.511 367.366 108.007 370.979 108.008 374.746V375.208H71.5166L71.5159 360.543Z" fill="#222B45"/>
<path d="M130.271 63.8369L111.5 79.8636L126.905 128.614L130.381 139.5C130.381 139.5 109.156 159.069 96.024 213.735C82.8916 268.402 61.4064 341.036 61.4064 341.036L106.754 354.017L143.645 230.357L187.039 327.372L192.049 356.066L230.667 344.679L221.562 272.715L176.015 148.145L180.746 115.123C180.746 115.123 187.851 98.6406 175.508 81.1906L171.637 64.7938L157.769 61.3779L130.271 63.8369Z" fill="#222B45"/>
<path d="M161.455 55.1273H110.705C110.187 55.1273 109.675 55.0254 109.197 54.8275C108.719 54.6295 108.285 54.3394 107.92 53.9737C107.554 53.6079 107.264 53.1737 107.066 52.6958C106.868 52.218 106.766 51.7058 106.766 51.1885V29.3128C106.766 21.5386 109.854 14.0828 115.351 8.58553C120.849 3.08831 128.304 0 136.079 0C143.853 0 151.309 3.08831 156.806 8.58553C162.303 14.0828 165.392 21.5386 165.392 29.3128V51.1885C165.392 52.2327 164.977 53.2341 164.239 53.9727C163.501 54.7113 162.5 55.1266 161.455 55.1273Z" fill="#222B45"/>
<path d="M160.961 43.435C166.654 33.0202 162.826 19.962 152.411 14.2688C141.997 8.57562 128.938 12.4032 123.245 22.8181C117.552 33.2329 121.38 46.291 131.794 51.9843C142.209 57.6775 155.267 53.8498 160.961 43.435Z" fill="#9F616A"/>
<path d="M172.328 31.501H141.293L140.975 27.0455L139.383 31.501H134.605L133.974 22.6728L130.821 31.501H121.577V31.0637C121.584 24.916 124.029 19.0221 128.376 14.6751C132.723 10.328 138.617 7.88281 144.765 7.87598H149.14C155.288 7.88299 161.181 10.3282 165.529 14.6752C169.876 19.0223 172.321 24.9161 172.328 31.0637V31.501Z" fill="#222B45"/>
<path d="M141.04 59.2094C140.807 59.209 140.574 59.1884 140.344 59.1476L117.62 55.1409V17.5869H142.635L142.016 18.3088C133.399 28.3594 139.891 44.6523 144.528 53.4703C144.87 54.1162 145.022 54.8455 144.968 55.5741C144.913 56.3028 144.654 57.0013 144.22 57.589C143.857 58.0917 143.379 58.501 142.827 58.7832C142.274 59.0655 141.663 59.2127 141.043 59.2128L141.04 59.2094Z" fill="#222B45"/>
<path d="M328.962 256.095L129.813 326.506C124.889 328.24 119.479 327.95 114.768 325.7C110.058 323.451 106.432 319.424 104.686 314.505L70.4729 217.743C68.7389 212.82 69.0286 207.409 71.2784 202.699C73.5282 197.988 77.5544 194.363 82.4739 192.617L281.623 122.203C286.547 120.469 291.958 120.759 296.668 123.009C301.378 125.259 305.004 129.285 306.75 134.204L340.961 230.966C342.695 235.89 342.405 241.3 340.155 246.01C337.906 250.721 333.879 254.347 328.96 256.093L328.962 256.095Z" fill="white"/>
<path d="M340.964 230.966L341.144 231.478C342.806 236.18 342.532 241.349 340.382 245.849C338.233 250.349 334.384 253.811 329.682 255.474L129.537 326.235C124.835 327.897 119.666 327.624 115.167 325.475C110.667 323.326 107.205 319.478 105.543 314.776L105.362 314.264L340.964 230.966Z" fill="#F2F2F2"/>
<path d="M117.385 215.08C104.184 223.767 87.2661 217.23 81.3499 207.708L82.2931 207.172C93.5308 200.167 110.22 204.069 117.385 215.08Z" fill="#7105E9"/>
<path d="M282.807 239.724C279.576 240.866 276.667 240.811 274.16 239.569C268.493 236.753 265.833 228.403 263.696 221.694C263.074 219.742 262.487 217.899 261.889 216.392L261.88 216.369C260.84 213.38 261.021 210.101 262.384 207.244C263.748 204.388 266.183 202.185 269.161 201.114L295.948 191.643C299.175 190.502 302.081 190.556 304.587 191.798C310.253 194.61 312.915 202.957 315.053 209.663C315.677 211.619 316.266 213.466 316.867 214.975C317.913 217.967 317.735 221.252 316.372 224.113C315.009 226.975 312.571 229.182 309.588 230.255L282.807 239.724ZM263.003 215.963C263.614 217.506 264.206 219.365 264.836 221.332C266.905 227.826 269.479 235.909 274.694 238.5C276.935 239.611 279.457 239.644 282.413 238.6L309.192 229.132C311.875 228.167 314.068 226.183 315.297 223.611C316.525 221.039 316.689 218.085 315.752 215.393C315.145 213.868 314.55 212.001 313.919 210.028C311.848 203.536 309.272 195.457 304.059 192.869C301.823 191.76 299.3 191.727 296.349 192.771L269.563 202.241C266.884 203.205 264.693 205.187 263.465 207.756C262.237 210.326 262.072 213.276 263.005 215.966L263.003 215.963Z" fill="#222B45"/>
<path d="M111.833 218.208C107.126 219.84 102.056 220.119 97.1981 219.013C90.1043 217.455 83.6658 213.22 80.3966 207.96L80.0686 207.433L81.5409 206.596C92.9497 199.49 110.053 203.342 117.437 214.686L117.761 215.184L117.265 215.511C115.571 216.627 113.747 217.532 111.833 218.208ZM81.7493 207.851C84.9492 212.604 90.9029 216.407 97.4562 217.847C103.826 219.335 110.526 218.254 116.104 214.838C108.882 204.391 92.8791 200.925 82.1643 207.615L81.7493 207.851Z" fill="#222B45"/>
<path d="M118.83 287.658C117.157 288.32 115.336 288.514 113.562 288.219C111.788 287.924 110.127 287.152 108.759 285.985C107.157 284.585 105.942 282.796 105.232 280.79C104.523 278.784 104.341 276.63 104.706 274.533C105.045 272.73 105.876 271.055 107.108 269.695C108.34 268.335 109.925 267.343 111.686 266.828L147.378 254.209C149.071 253.507 150.926 253.286 152.738 253.571C154.549 253.856 156.246 254.636 157.643 255.824C159.244 257.225 160.457 259.014 161.166 261.02C161.875 263.026 162.056 265.18 161.69 267.276C160.985 270.959 158.498 273.672 154.708 274.971L119.016 287.591L118.83 287.658ZM111.908 268.014C110.385 268.484 109.019 269.361 107.957 270.549C106.894 271.737 106.176 273.192 105.878 274.758C105.549 276.646 105.712 278.587 106.351 280.394C106.99 282.201 108.083 283.813 109.526 285.074C110.763 286.123 112.267 286.808 113.87 287.054C115.473 287.3 117.112 287.098 118.607 286.469L154.319 273.842C155.879 273.392 157.283 272.519 158.377 271.321C159.471 270.122 160.212 268.644 160.518 267.051C160.847 265.162 160.685 263.221 160.046 261.415C159.407 259.608 158.314 257.995 156.871 256.734C155.632 255.686 154.128 255.001 152.525 254.753C150.922 254.506 149.281 254.705 147.784 255.33L112.073 267.956L111.908 268.014Z" fill="#222B45"/>
<path d="M283.047 211.254L271.796 215.232C271.426 215.363 271.035 215.42 270.643 215.399C270.252 215.378 269.869 215.281 269.515 215.112C269.162 214.943 268.845 214.706 268.583 214.415C268.321 214.124 268.119 213.784 267.988 213.414C267.858 213.045 267.801 212.653 267.822 212.262C267.842 211.871 267.94 211.487 268.109 211.134C268.278 210.78 268.515 210.464 268.806 210.202C269.097 209.939 269.437 209.737 269.807 209.607L281.058 205.629C281.427 205.498 281.819 205.441 282.21 205.462C282.601 205.483 282.985 205.58 283.338 205.749C283.692 205.918 284.008 206.155 284.27 206.446C284.532 206.737 284.735 207.078 284.865 207.447C284.996 207.816 285.052 208.208 285.032 208.599C285.011 208.99 284.913 209.374 284.745 209.727C284.576 210.081 284.339 210.398 284.048 210.66C283.756 210.922 283.416 211.124 283.047 211.254Z" fill="#7105E9"/>
<path d="M286.229 220.255L274.978 224.233C274.608 224.364 274.217 224.421 273.826 224.4C273.434 224.379 273.051 224.282 272.698 224.113C271.984 223.772 271.434 223.161 271.171 222.415C270.907 221.669 270.95 220.849 271.291 220.135C271.632 219.421 272.243 218.872 272.989 218.608L284.24 214.63C284.986 214.366 285.806 214.409 286.52 214.75C287.234 215.091 287.784 215.702 288.047 216.448C288.311 217.194 288.268 218.014 287.927 218.728C287.586 219.442 286.975 219.992 286.229 220.255Z" fill="#7105E9"/>
<path d="M289.41 229.256L278.159 233.234C277.79 233.365 277.398 233.422 277.007 233.401C276.616 233.38 276.232 233.283 275.879 233.114C275.525 232.945 275.209 232.708 274.946 232.417C274.684 232.126 274.482 231.785 274.352 231.416C274.221 231.047 274.165 230.655 274.185 230.264C274.206 229.873 274.304 229.489 274.472 229.136C274.641 228.782 274.878 228.465 275.169 228.203C275.461 227.941 275.801 227.739 276.17 227.609L287.421 223.631C288.167 223.367 288.988 223.41 289.702 223.751C290.416 224.092 290.965 224.703 291.229 225.449C291.492 226.195 291.449 227.015 291.108 227.729C290.767 228.443 290.156 228.992 289.41 229.256Z" fill="#7105E9"/>
<path d="M302.736 204.293L291.485 208.271C291.113 208.409 290.718 208.473 290.322 208.457C289.927 208.441 289.538 208.347 289.179 208.179C288.82 208.011 288.498 207.774 288.232 207.48C287.965 207.187 287.76 206.843 287.628 206.47C287.496 206.096 287.44 205.7 287.463 205.304C287.486 204.909 287.587 204.522 287.761 204.166C287.935 203.81 288.178 203.492 288.476 203.231C288.775 202.97 289.122 202.771 289.498 202.646L300.749 198.668C301.495 198.404 302.315 198.447 303.029 198.788C303.743 199.129 304.292 199.74 304.556 200.486C304.82 201.232 304.777 202.052 304.436 202.766C304.095 203.48 303.484 204.03 302.738 204.293L302.736 204.293Z" fill="#7105E9"/>
<path d="M305.919 213.293L294.667 217.271C294.298 217.402 293.907 217.459 293.515 217.438C293.124 217.417 292.741 217.32 292.387 217.151C291.673 216.81 291.124 216.199 290.86 215.453C290.596 214.707 290.64 213.887 290.981 213.173C291.322 212.459 291.932 211.91 292.678 211.646L303.93 207.668C304.676 207.404 305.496 207.447 306.21 207.788C306.924 208.129 307.473 208.74 307.737 209.486C308.001 210.232 307.957 211.052 307.616 211.766C307.275 212.48 306.665 213.03 305.919 213.293Z" fill="#7105E9"/>
<path d="M309.101 222.294L297.85 226.272C297.48 226.403 297.089 226.46 296.697 226.439C296.306 226.418 295.923 226.321 295.569 226.152C295.216 225.983 294.899 225.746 294.637 225.455C294.375 225.164 294.173 224.824 294.042 224.454C293.912 224.085 293.855 223.693 293.876 223.302C293.896 222.911 293.994 222.527 294.163 222.174C294.332 221.82 294.569 221.504 294.86 221.242C295.151 220.98 295.491 220.777 295.861 220.647L307.112 216.669C307.858 216.405 308.678 216.448 309.392 216.789C310.106 217.13 310.655 217.741 310.919 218.487C311.183 219.233 311.14 220.053 310.799 220.767C310.458 221.481 309.847 222.031 309.101 222.294Z" fill="#7105E9"/>
<path d="M314.249 155.352L78.5969 238.567L78.9942 239.693L314.646 156.477L314.249 155.352Z" fill="#222B45"/>
<path d="M328.962 256.095L129.813 326.506C124.889 328.24 119.479 327.95 114.768 325.7C110.058 323.451 106.432 319.424 104.686 314.505L70.4729 217.743C68.7389 212.82 69.0286 207.409 71.2784 202.699C73.5282 197.988 77.5544 194.363 82.4739 192.617L281.623 122.203C286.547 120.469 291.958 120.759 296.668 123.009C301.378 125.259 305.004 129.285 306.75 134.204L340.961 230.966C342.695 235.89 342.405 241.3 340.155 246.01C337.906 250.721 333.879 254.347 328.96 256.093L328.962 256.095ZM82.8718 193.739C78.2501 195.379 74.4677 198.786 72.3543 203.211C70.241 207.636 69.9693 212.719 71.5988 217.345L105.81 314.106C107.45 318.728 110.856 322.51 115.281 324.624C119.707 326.737 124.79 327.009 129.415 325.379L328.565 254.969C333.186 253.329 336.969 249.923 339.082 245.498C341.195 241.072 341.467 235.989 339.838 231.364L305.627 134.602C303.987 129.981 300.58 126.198 296.155 124.085C291.73 121.972 286.647 121.7 282.021 123.329L82.8718 193.739Z" fill="#222B45"/>
<path d="M592.198 375.541H0.803082C0.695752 375.544 0.588883 375.525 0.488808 375.486C0.388733 375.447 0.297491 375.389 0.220469 375.314C0.143446 375.239 0.0822164 375.15 0.0404051 375.051C-0.0014061 374.952 -0.0229492 374.846 -0.0229492 374.738C-0.0229492 374.631 -0.0014061 374.525 0.0404051 374.426C0.0822164 374.327 0.143446 374.237 0.220469 374.162C0.297491 374.088 0.388733 374.029 0.488808 373.99C0.588883 373.951 0.695752 373.933 0.803082 373.936H592.198C592.306 373.933 592.413 373.951 592.513 373.99C592.613 374.029 592.704 374.088 592.781 374.162C592.858 374.237 592.919 374.327 592.961 374.426C593.003 374.525 593.024 374.631 593.024 374.738C593.024 374.846 593.003 374.952 592.961 375.051C592.919 375.15 592.858 375.239 592.781 375.314C592.704 375.389 592.613 375.447 592.513 375.486C592.413 375.525 592.306 375.544 592.198 375.541Z" fill="#CBCBCB"/>
</svg>
