<svg width="50" height="50" viewBox="0 0 50 50" fill="none" xmlns="http://www.w3.org/2000/svg">
<path d="M19.2008 3.80248C17.7687 5.0229 15.9881 5.76045 14.1125 5.91013C9.73553 6.25941 6.2599 9.73504 5.91061 14.112C5.76094 15.9876 5.02339 17.7682 3.80297 19.2003C0.954999 22.5422 0.954999 27.4575 3.80297 30.7994C5.02339 32.2315 5.76094 34.0121 5.91061 35.8877C6.2599 40.2646 9.73553 43.7403 14.1125 44.0895C15.9881 44.2392 17.7687 44.9768 19.2008 46.1972C22.5427 49.0452 27.458 49.0452 30.7999 46.1972C32.232 44.9768 34.0126 44.2392 35.8882 44.0895C40.2651 43.7403 43.7408 40.2646 44.09 35.8877C44.2397 34.0121 44.9773 32.2315 46.1977 30.7994C49.0457 27.4575 49.0457 22.5422 46.1977 19.2003C44.9773 17.7682 44.2397 15.9876 44.09 14.112C43.7408 9.73504 40.2651 6.25941 35.8882 5.91013C34.0126 5.76045 32.232 5.0229 30.7999 3.80248C27.458 0.954511 22.5427 0.954511 19.2008 3.80248Z" fill="#0BAC07" fill-opacity="0.05"/>
<path d="M18.0003 24.9998L22.667 29.6665L33.167 19.1665M14.1125 5.91013C15.9881 5.76045 17.7687 5.0229 19.2008 3.80248C22.5427 0.954511 27.458 0.954511 30.7999 3.80248C32.232 5.0229 34.0126 5.76045 35.8882 5.91013C40.2651 6.25941 43.7408 9.73504 44.09 14.112C44.2397 15.9876 44.9773 17.7682 46.1977 19.2003C49.0456 22.5422 49.0456 27.4575 46.1977 30.7994C44.9773 32.2315 44.2397 34.0121 44.09 35.8877C43.7408 40.2646 40.2651 43.7403 35.8882 44.0895C34.0126 44.2392 32.232 44.9768 30.7999 46.1972C27.458 49.0452 22.5427 49.0452 19.2008 46.1972C17.7687 44.9768 15.9881 44.2392 14.1125 44.0895C9.73553 43.7403 6.2599 40.2646 5.91061 35.8877C5.76094 34.0121 5.02339 32.2315 3.80297 30.7994C0.954999 27.4575 0.954999 22.5422 3.80297 19.2003C5.02339 17.7682 5.76094 15.9876 5.91061 14.112C6.2599 9.73504 9.73553 6.25941 14.1125 5.91013Z" stroke="#0BAC07" stroke-width="3" stroke-linecap="round" stroke-linejoin="round"/>
</svg>
