<svg width="11" height="8" viewBox="0 0 11 8" fill="none" xmlns="http://www.w3.org/2000/svg">
<path d="M0.709817 4.35659C0.641724 4.24877 0.607677 4.19486 0.588618 4.11171C0.574302 4.04925 0.574302 3.95075 0.588618 3.88829C0.607677 3.80514 0.641724 3.75123 0.709817 3.64341C1.27252 2.75242 2.94746 0.5 5.49996 0.5C8.05246 0.5 9.72739 2.75242 10.2901 3.64341C10.3582 3.75123 10.3922 3.80514 10.4113 3.88829C10.4256 3.95075 10.4256 4.04925 10.4113 4.11171C10.3922 4.19486 10.3582 4.24877 10.2901 4.35659C9.72739 5.24758 8.05246 7.5 5.49996 7.5C2.94746 7.5 1.27252 5.24758 0.709817 4.35659Z" stroke="#475467" stroke-linecap="round" stroke-linejoin="round"/>
<path d="M5.49996 5.5C6.32838 5.5 6.99996 4.82843 6.99996 4C6.99996 3.17157 6.32838 2.5 5.49996 2.5C4.67153 2.5 3.99996 3.17157 3.99996 4C3.99996 4.82843 4.67153 5.5 5.49996 5.5Z" stroke="#475467" stroke-linecap="round" stroke-linejoin="round"/>
</svg>
