<svg width="30" height="30" viewBox="0 0 30 30" fill="none" xmlns="http://www.w3.org/2000/svg">
<g clip-path="url(#clip0_26_1146)">
<path d="M14.5854 29.5853C22.6406 29.5853 29.1707 23.0552 29.1707 14.9999C29.1707 6.94464 22.6406 0.414551 14.5854 0.414551C6.53009 0.414551 0 6.94464 0 14.9999C0 23.0552 6.53009 29.5853 14.5854 29.5853Z" fill="#F0F0F0"/>
<path d="M3.01505 6.11865C1.86936 7.60927 1.00547 9.32732 0.502441 11.1937H8.09013L3.01505 6.11865Z" fill="#0052B4"/>
<path d="M28.6689 11.1937C28.1659 9.32732 27.3019 7.60927 26.1563 6.11865L21.0813 11.1937H28.6689Z" fill="#0052B4"/>
<path d="M0.502441 18.8042C1.00552 20.6706 1.86942 22.3886 3.01506 23.8792L8.08997 18.8042H0.502441Z" fill="#0052B4"/>
<path d="M23.4647 3.4282C21.9741 2.28251 20.2561 1.41861 18.3896 0.915527V8.50317L23.4647 3.4282Z" fill="#0052B4"/>
<path d="M5.70532 26.5681C7.19594 27.7138 8.91399 28.5777 10.7804 29.0807V21.4932L5.70532 26.5681Z" fill="#0052B4"/>
<path d="M10.7803 0.915527C8.91393 1.41861 7.19588 2.28251 5.70532 3.42814L10.7803 8.5031V0.915527Z" fill="#0052B4"/>
<path d="M18.3896 29.0807C20.256 28.5777 21.9741 27.7138 23.4646 26.5681L18.3896 21.4932V29.0807Z" fill="#0052B4"/>
<path d="M21.0813 18.8042L26.1563 23.8792C27.3019 22.3887 28.1659 20.6706 28.6689 18.8042H21.0813Z" fill="#0052B4"/>
<path d="M29.0473 13.0975H16.4879H16.4878V0.538014C15.8651 0.45694 15.2301 0.414551 14.5854 0.414551C13.9405 0.414551 13.3057 0.45694 12.6829 0.538014V13.0974V13.0974H0.123463C0.0423887 13.7202 0 14.3551 0 14.9999C0 15.6448 0.0423887 16.2796 0.123463 16.9023H12.6828H12.6829V29.4618C13.3057 29.5429 13.9405 29.5853 14.5854 29.5853C15.2301 29.5853 15.8651 29.543 16.4878 29.4618V16.9025V16.9024H29.0473C29.1283 16.2796 29.1707 15.6448 29.1707 14.9999C29.1707 14.3551 29.1283 13.7202 29.0473 13.0975Z" fill="#D80027"/>
<path d="M18.3901 18.8057L24.8986 25.3142C25.198 25.015 25.4835 24.7021 25.756 24.3778L20.1838 18.8057H18.3901V18.8057Z" fill="#D80027"/>
<path d="M10.7803 18.8057H10.7802L4.27173 25.3141C4.57096 25.6134 4.8838 25.899 5.2081 26.1714L10.7803 20.5992V18.8057Z" fill="#D80027"/>
<path d="M10.7804 11.1947V11.1946L4.2719 4.68604C3.97256 4.98526 3.687 5.29811 3.41455 5.6224L8.98679 11.1946H10.7804V11.1947Z" fill="#D80027"/>
<path d="M18.3901 11.196L24.8987 4.68737C24.5995 4.38803 24.2866 4.10247 23.9623 3.83008L18.3901 9.40232V11.196Z" fill="#D80027"/>
</g>
<defs>
<clipPath id="clip0_26_1146">
<rect width="29.1707" height="29.1707" fill="white" transform="translate(0 0.414551)"/>
</clipPath>
</defs>
</svg>
