<svg width="34" height="25" viewBox="0 0 34 25" fill="none" xmlns="http://www.w3.org/2000/svg">
<path d="M32.4168 9.41683H1.5835M1.5835 6.64183L1.5835 18.3585C1.5835 20.0853 1.5835 20.9487 1.91956 21.6083C2.21517 22.1885 2.68686 22.6602 3.26703 22.9558C3.92659 23.2918 4.79 23.2918 6.51683 23.2918L27.4835 23.2918C29.2103 23.2918 30.0737 23.2918 30.7333 22.9558C31.3135 22.6602 31.7852 22.1885 32.0808 21.6083C32.4168 20.9487 32.4168 20.0853 32.4168 18.3585V6.64183C32.4168 4.915 32.4168 4.05159 32.0808 3.39203C31.7852 2.81186 31.3135 2.34017 30.7333 2.04456C30.0737 1.7085 29.2103 1.7085 27.4835 1.7085L6.51683 1.7085C4.79 1.7085 3.92659 1.7085 3.26703 2.04456C2.68686 2.34017 2.21517 2.81186 1.91956 3.39203C1.5835 4.05159 1.5835 4.915 1.5835 6.64183Z" stroke="#222B45" stroke-width="2" stroke-linecap="round" stroke-linejoin="round"/>
</svg>
