<svg width="24" height="25" viewBox="0 0 24 25" fill="none" xmlns="http://www.w3.org/2000/svg">
<path d="M14 2.31592V6.44646C14 7.00651 14 7.28654 14.109 7.50045C14.2049 7.68861 14.3578 7.84159 14.546 7.93746C14.7599 8.04646 15.0399 8.04646 15.6 8.04646H19.7305M14 17.0464H8M16 13.0464H8M20 10.0346V17.2464C20 18.9265 20 19.7666 19.673 20.4084C19.3854 20.9728 18.9265 21.4318 18.362 21.7194C17.7202 22.0464 16.8802 22.0464 15.2 22.0464H8.8C7.11984 22.0464 6.27976 22.0464 5.63803 21.7194C5.07354 21.4318 4.6146 20.9728 4.32698 20.4084C4 19.7666 4 18.9265 4 17.2464V6.84639C4 5.16623 4 4.32615 4.32698 3.68442C4.6146 3.11993 5.07354 2.66099 5.63803 2.37337C6.27976 2.04639 7.11984 2.04639 8.8 2.04639H12.0118C12.7455 2.04639 13.1124 2.04639 13.4577 2.12928C13.7638 2.20277 14.0564 2.32398 14.3249 2.48847C14.6276 2.67399 14.887 2.93342 15.4059 3.45227L18.5941 6.6405C19.113 7.15935 19.3724 7.41878 19.5579 7.72153C19.7224 7.98995 19.8436 8.28258 19.9171 8.58869C20 8.93395 20 9.30084 20 10.0346Z" stroke="white" stroke-width="2" stroke-linecap="round" stroke-linejoin="round"/>
</svg>
