<svg width="49" height="49" viewBox="0 0 49 49" fill="none" xmlns="http://www.w3.org/2000/svg">
<rect y="0.490234" width="49" height="48.02" rx="24.01" fill="#7105E9" fill-opacity="0.05"/>
<rect x="0.75" y="1.24023" width="47.5" height="46.52" rx="23.26" stroke="#7105E9" stroke-opacity="0.2" stroke-width="1.5"/>
<path d="M28.75 11.5V13.25C28.75 13.9501 28.75 14.3001 28.6138 14.5675C28.4939 14.8027 28.3027 14.9939 28.0675 15.1138C27.8001 15.25 27.4501 15.25 26.75 15.25H23.25C22.5499 15.25 22.1999 15.25 21.9325 15.1138C21.6973 14.9939 21.5061 14.8027 21.3862 14.5675C21.25 14.3001 21.25 13.9501 21.25 13.25V11.5M19 36.5H31C32.4001 36.5 33.1002 36.5 33.635 36.2275C34.1054 35.9878 34.4878 35.6054 34.7275 35.135C35 34.6002 35 33.9001 35 32.5V15.5C35 14.0999 35 13.3998 34.7275 12.865C34.4878 12.3946 34.1054 12.0122 33.635 11.7725C33.1002 11.5 32.4001 11.5 31 11.5H19C17.5999 11.5 16.8998 11.5 16.365 11.7725C15.8946 12.0122 15.5122 12.3946 15.2725 12.865C15 13.3998 15 14.0999 15 15.5V32.5C15 33.9001 15 34.6002 15.2725 35.135C15.5122 35.6054 15.8946 35.9878 16.365 36.2275C16.8998 36.5 17.5999 36.5 19 36.5Z" stroke="#7105E9" stroke-width="2" stroke-linecap="round" stroke-linejoin="round"/>
<g clip-path="url(#clip0_106_9823)">
<path d="M20.3128 23.9481V26.6564M28.4378 22.5939V25.3022M27.7607 19.2085C29.4187 19.2085 30.3155 19.4622 30.7617 19.6591C30.8211 19.6853 30.8508 19.6984 30.9365 19.7802C30.9879 19.8293 31.0818 19.9732 31.1059 20.04C31.1462 20.1515 31.1462 20.2124 31.1462 20.3343V27.6119C31.1462 28.2272 31.1462 28.5348 31.0539 28.693C30.96 28.8538 30.8695 28.9286 30.6938 28.9904C30.5211 29.0512 30.1725 28.9842 29.4752 28.8503C28.9872 28.7565 28.4084 28.6877 27.7607 28.6877C25.7295 28.6877 23.6982 30.0418 20.9899 30.0418C19.3319 30.0418 18.4352 29.7881 17.989 29.5913C17.9296 29.5651 17.8999 29.552 17.8141 29.4701C17.7627 29.4211 17.6689 29.2771 17.6448 29.2103C17.6045 29.0988 17.6045 29.0379 17.6045 28.916L17.6045 21.6384C17.6045 21.0231 17.6045 20.7155 17.6968 20.5573C17.7906 20.3965 17.8811 20.3217 18.0568 20.2599C18.2295 20.1991 18.5782 20.2661 19.2754 20.4001C19.7635 20.4938 20.3423 20.5627 20.9899 20.5627C23.0212 20.5627 25.0524 19.2085 27.7607 19.2085ZM26.068 24.6252C26.068 25.56 25.3102 26.3179 24.3753 26.3179C23.4405 26.3179 22.6826 25.56 22.6826 24.6252C22.6826 23.6903 23.4405 22.9325 24.3753 22.9325C25.3102 22.9325 26.068 23.6903 26.068 24.6252Z" stroke="#7105E9" stroke-width="1.5" stroke-linecap="round" stroke-linejoin="round"/>
</g>
<defs>
<clipPath id="clip0_106_9823">
<rect width="16.25" height="16.25" fill="white" transform="translate(16.25 16.5)"/>
</clipPath>
</defs>
</svg>
