<svg width="30" height="30" viewBox="0 0 30 30" fill="none" xmlns="http://www.w3.org/2000/svg">
<g clip-path="url(#clip0_60_1230)">
<path d="M14.5854 29.5853C22.6406 29.5853 29.1707 23.0552 29.1707 14.9999C29.1707 6.94464 22.6406 0.414551 14.5854 0.414551C6.53009 0.414551 0 6.94464 0 14.9999C0 23.0552 6.53009 29.5853 14.5854 29.5853Z" fill="#F0F0F0"/>
<path d="M13.9507 15.0002H29.1702C29.1702 13.6838 28.9947 12.4085 28.6677 11.1953H13.9507V15.0002Z" fill="#D80027"/>
<path d="M13.9507 7.38937H27.0294C26.1366 5.93243 24.995 4.64465 23.664 3.58447H13.9507V7.38937Z" fill="#D80027"/>
<path d="M14.585 29.5853C18.0177 29.5853 21.1727 28.3988 23.6642 26.4146H5.50586C7.99734 28.3988 11.1524 29.5853 14.585 29.5853Z" fill="#D80027"/>
<path d="M2.14049 22.6086H27.0297C27.7465 21.439 28.3024 20.1605 28.668 18.8037H0.502197C0.8678 20.1605 1.4237 21.439 2.14049 22.6086Z" fill="#D80027"/>
<path d="M6.75622 2.69226H8.08536L6.84903 3.59046L7.32128 5.04381L6.085 4.14561L4.84872 5.04381L5.25666 3.78827C4.16811 4.69501 3.21402 5.75735 2.42778 6.94105H2.85366L2.06668 7.51278C1.94407 7.71732 1.82648 7.9251 1.71378 8.13596L2.08958 9.29259L1.38846 8.78319C1.21417 9.15244 1.05476 9.53001 0.911471 9.91544L1.3255 11.1898H2.85366L1.61732 12.088L2.08958 13.5414L0.853301 12.6432L0.112752 13.1812C0.0386284 13.7771 0 14.384 0 14.9999H14.5854C14.5854 6.94469 14.5854 5.99505 14.5854 0.414551C11.7041 0.414551 9.01814 1.25036 6.75622 2.69226ZM7.32128 13.5414L6.085 12.6432L4.84872 13.5414L5.32098 12.088L4.08464 11.1898H5.6128L6.085 9.73648L6.5572 11.1898H8.08536L6.84903 12.088L7.32128 13.5414ZM6.84903 7.83924L7.32128 9.29259L6.085 8.3944L4.84872 9.29259L5.32098 7.83924L4.08464 6.94105H5.6128L6.085 5.48769L6.5572 6.94105H8.08536L6.84903 7.83924ZM12.553 13.5414L11.3167 12.6432L10.0804 13.5414L10.5527 12.088L9.31635 11.1898H10.8445L11.3167 9.73648L11.7889 11.1898H13.3171L12.0807 12.088L12.553 13.5414ZM12.0807 7.83924L12.553 9.29259L11.3167 8.3944L10.0804 9.29259L10.5527 7.83924L9.31635 6.94105H10.8445L11.3167 5.48769L11.7889 6.94105H13.3171L12.0807 7.83924ZM12.0807 3.59046L12.553 5.04381L11.3167 4.14561L10.0804 5.04381L10.5527 3.59046L9.31635 2.69226H10.8445L11.3167 1.23891L11.7889 2.69226H13.3171L12.0807 3.59046Z" fill="#0052B4"/>
</g>
<defs>
<clipPath id="clip0_60_1230">
<rect width="29.1707" height="29.1707" fill="white" transform="translate(0 0.414551)"/>
</clipPath>
</defs>
</svg>
