<svg width="24" height="25" viewBox="0 0 24 25" fill="none" xmlns="http://www.w3.org/2000/svg">
<path d="M22 8.54639H2M2 12.5464H5.54668C6.08687 12.5464 6.35696 12.5464 6.61813 12.5929C6.84995 12.6343 7.0761 12.7027 7.29191 12.7969C7.53504 12.9031 7.75977 13.0529 8.20924 13.3525L8.79076 13.7402C9.24023 14.0399 9.46496 14.1897 9.70809 14.2958C9.9239 14.39 10.15 14.4585 10.3819 14.4998C10.643 14.5464 10.9131 14.5464 11.4533 14.5464H12.5467C13.0869 14.5464 13.357 14.5464 13.6181 14.4998C13.85 14.4585 14.0761 14.39 14.2919 14.2958C14.535 14.1897 14.7598 14.0399 15.2092 13.7402L15.7908 13.3525C16.2402 13.0529 16.465 12.9031 16.7081 12.7969C16.9239 12.7027 17.15 12.6343 17.3819 12.5929C17.643 12.5464 17.9131 12.5464 18.4533 12.5464H22M2 7.24639L2 16.8464C2 17.9665 2 18.5265 2.21799 18.9544C2.40973 19.3307 2.71569 19.6367 3.09202 19.8284C3.51984 20.0464 4.07989 20.0464 5.2 20.0464L18.8 20.0464C19.9201 20.0464 20.4802 20.0464 20.908 19.8284C21.2843 19.6367 21.5903 19.3307 21.782 18.9544C22 18.5265 22 17.9665 22 16.8464V7.24639C22 6.12628 22 5.56623 21.782 5.13841C21.5903 4.76208 21.2843 4.45612 20.908 4.26438C20.4802 4.04639 19.9201 4.04639 18.8 4.04639L5.2 4.04639C4.0799 4.04639 3.51984 4.04639 3.09202 4.26437C2.7157 4.45612 2.40973 4.76208 2.21799 5.13841C2 5.56623 2 6.12628 2 7.24639Z" stroke="white" stroke-width="2" stroke-linecap="round" stroke-linejoin="round"/>
</svg>
